<mxfile host="app.diagrams.net" modified="2024-06-11T15:14:16.396Z" agent="Mozilla/5.0 (Windows NT 10.0; Win64; x64) AppleWebKit/537.36 (KHTML, like Gecko) Chrome/125.0.0.0 Safari/537.36 Edg/125.0.0.0" etag="Mzzsbb2OPIXKwhwyQ7hq" version="24.2.1" type="device">
  <diagram name="Seite-1" id="JyPgvnvc2GJYqzVewFz3">
    <mxGraphModel dx="2066" dy="1111" grid="1" gridSize="10" guides="1" tooltips="1" connect="1" arrows="1" fold="1" page="1" pageScale="1" pageWidth="827" pageHeight="1169" math="0" shadow="0">
      <root>
        <mxCell id="0" />
        <mxCell id="1" parent="0" />
        <mxCell id="8xbBpxBC5o1SACbG_JmZ-13" value="" style="edgeStyle=orthogonalEdgeStyle;rounded=0;orthogonalLoop=1;jettySize=auto;html=1;" edge="1" parent="1" source="8xbBpxBC5o1SACbG_JmZ-2" target="8xbBpxBC5o1SACbG_JmZ-10">
          <mxGeometry relative="1" as="geometry" />
        </mxCell>
        <mxCell id="8xbBpxBC5o1SACbG_JmZ-14" style="edgeStyle=orthogonalEdgeStyle;rounded=0;orthogonalLoop=1;jettySize=auto;html=1;" edge="1" parent="1" source="8xbBpxBC5o1SACbG_JmZ-2" target="8xbBpxBC5o1SACbG_JmZ-3">
          <mxGeometry relative="1" as="geometry" />
        </mxCell>
        <mxCell id="8xbBpxBC5o1SACbG_JmZ-35" value="" style="edgeStyle=orthogonalEdgeStyle;rounded=0;orthogonalLoop=1;jettySize=auto;html=1;" edge="1" parent="1" source="8xbBpxBC5o1SACbG_JmZ-2" target="8xbBpxBC5o1SACbG_JmZ-34">
          <mxGeometry relative="1" as="geometry" />
        </mxCell>
        <mxCell id="8xbBpxBC5o1SACbG_JmZ-2" value="Gateway" style="outlineConnect=0;dashed=0;verticalLabelPosition=bottom;verticalAlign=top;align=center;html=1;shape=mxgraph.aws3.api_gateway;fillColor=#D9A741;gradientColor=none;" vertex="1" parent="1">
          <mxGeometry x="170" y="530" width="76.5" height="93" as="geometry" />
        </mxCell>
        <mxCell id="8xbBpxBC5o1SACbG_JmZ-15" style="edgeStyle=orthogonalEdgeStyle;rounded=0;orthogonalLoop=1;jettySize=auto;html=1;" edge="1" parent="1" source="8xbBpxBC5o1SACbG_JmZ-3">
          <mxGeometry relative="1" as="geometry">
            <mxPoint x="335" y="580" as="targetPoint" />
          </mxGeometry>
        </mxCell>
        <mxCell id="8xbBpxBC5o1SACbG_JmZ-3" value="Service Registry" style="sketch=0;outlineConnect=0;fontColor=#232F3E;gradientColor=none;fillColor=#ED7100;strokeColor=none;dashed=0;verticalLabelPosition=bottom;verticalAlign=top;align=center;html=1;fontSize=12;fontStyle=0;aspect=fixed;pointerEvents=1;shape=mxgraph.aws4.registry;" vertex="1" parent="1">
          <mxGeometry x="300" y="390" width="70" height="70" as="geometry" />
        </mxCell>
        <mxCell id="8xbBpxBC5o1SACbG_JmZ-16" style="edgeStyle=orthogonalEdgeStyle;rounded=0;orthogonalLoop=1;jettySize=auto;html=1;" edge="1" parent="1" source="8xbBpxBC5o1SACbG_JmZ-10" target="8xbBpxBC5o1SACbG_JmZ-2">
          <mxGeometry relative="1" as="geometry" />
        </mxCell>
        <mxCell id="8xbBpxBC5o1SACbG_JmZ-10" value="Load Balancer&lt;div&gt;&lt;br&gt;&lt;/div&gt;" style="outlineConnect=0;dashed=0;verticalLabelPosition=bottom;verticalAlign=top;align=center;html=1;shape=mxgraph.aws3.classic_load_balancer;fillColor=#F58534;gradientColor=none;" vertex="1" parent="1">
          <mxGeometry x="340" y="540.5" width="69" height="72" as="geometry" />
        </mxCell>
        <mxCell id="8xbBpxBC5o1SACbG_JmZ-11" style="edgeStyle=orthogonalEdgeStyle;rounded=0;orthogonalLoop=1;jettySize=auto;html=1;entryX=0;entryY=0.5;entryDx=0;entryDy=0;entryPerimeter=0;" edge="1" parent="1" source="8xbBpxBC5o1SACbG_JmZ-2" target="8xbBpxBC5o1SACbG_JmZ-10">
          <mxGeometry relative="1" as="geometry" />
        </mxCell>
        <mxCell id="8xbBpxBC5o1SACbG_JmZ-17" value="PDF Upload Instances&lt;div&gt;&lt;br&gt;&lt;/div&gt;" style="image;sketch=0;aspect=fixed;html=1;points=[];align=center;fontSize=12;image=img/lib/mscae/Kubernetes.svg;" vertex="1" parent="1">
          <mxGeometry x="500" y="460" width="50" height="48" as="geometry" />
        </mxCell>
        <mxCell id="8xbBpxBC5o1SACbG_JmZ-32" style="edgeStyle=orthogonalEdgeStyle;rounded=0;orthogonalLoop=1;jettySize=auto;html=1;" edge="1" parent="1" source="8xbBpxBC5o1SACbG_JmZ-18" target="8xbBpxBC5o1SACbG_JmZ-24">
          <mxGeometry relative="1" as="geometry" />
        </mxCell>
        <mxCell id="8xbBpxBC5o1SACbG_JmZ-38" style="edgeStyle=orthogonalEdgeStyle;rounded=0;orthogonalLoop=1;jettySize=auto;html=1;" edge="1" parent="1" source="8xbBpxBC5o1SACbG_JmZ-18" target="8xbBpxBC5o1SACbG_JmZ-2">
          <mxGeometry relative="1" as="geometry">
            <Array as="points">
              <mxPoint x="525" y="750" />
              <mxPoint x="208" y="750" />
            </Array>
          </mxGeometry>
        </mxCell>
        <mxCell id="8xbBpxBC5o1SACbG_JmZ-18" value="&lt;div&gt;PDF Analyzer&lt;/div&gt;&lt;div&gt;Instances&lt;/div&gt;" style="image;sketch=0;aspect=fixed;html=1;points=[];align=center;fontSize=12;image=img/lib/mscae/Kubernetes.svg;" vertex="1" parent="1">
          <mxGeometry x="500" y="650" width="50" height="48" as="geometry" />
        </mxCell>
        <mxCell id="8xbBpxBC5o1SACbG_JmZ-19" style="edgeStyle=orthogonalEdgeStyle;rounded=0;orthogonalLoop=1;jettySize=auto;html=1;entryX=1;entryY=0.5;entryDx=0;entryDy=0;entryPerimeter=0;" edge="1" parent="1" source="8xbBpxBC5o1SACbG_JmZ-17" target="8xbBpxBC5o1SACbG_JmZ-10">
          <mxGeometry relative="1" as="geometry" />
        </mxCell>
        <mxCell id="8xbBpxBC5o1SACbG_JmZ-20" style="edgeStyle=orthogonalEdgeStyle;rounded=0;orthogonalLoop=1;jettySize=auto;html=1;entryX=1;entryY=0.5;entryDx=0;entryDy=0;entryPerimeter=0;" edge="1" parent="1" source="8xbBpxBC5o1SACbG_JmZ-18" target="8xbBpxBC5o1SACbG_JmZ-10">
          <mxGeometry relative="1" as="geometry" />
        </mxCell>
        <mxCell id="8xbBpxBC5o1SACbG_JmZ-27" style="edgeStyle=orthogonalEdgeStyle;rounded=0;orthogonalLoop=1;jettySize=auto;html=1;entryX=0.98;entryY=0.604;entryDx=0;entryDy=0;entryPerimeter=0;" edge="1" parent="1">
          <mxGeometry relative="1" as="geometry">
            <mxPoint x="549" y="683.492" as="targetPoint" />
            <mxPoint x="730" y="612.5" as="sourcePoint" />
            <Array as="points">
              <mxPoint x="730" y="670" />
              <mxPoint x="549" y="670" />
            </Array>
          </mxGeometry>
        </mxCell>
        <mxCell id="8xbBpxBC5o1SACbG_JmZ-24" value="" style="outlineConnect=0;dashed=0;verticalLabelPosition=bottom;verticalAlign=top;align=center;html=1;shape=mxgraph.aws3.postgre_sql_instance;fillColor=#2E73B8;gradientColor=none;" vertex="1" parent="1">
          <mxGeometry x="700" y="545" width="60" height="63" as="geometry" />
        </mxCell>
        <mxCell id="8xbBpxBC5o1SACbG_JmZ-29" style="edgeStyle=orthogonalEdgeStyle;rounded=0;orthogonalLoop=1;jettySize=auto;html=1;entryX=0.5;entryY=0;entryDx=0;entryDy=0;entryPerimeter=0;" edge="1" parent="1" source="8xbBpxBC5o1SACbG_JmZ-17" target="8xbBpxBC5o1SACbG_JmZ-24">
          <mxGeometry relative="1" as="geometry" />
        </mxCell>
        <mxCell id="8xbBpxBC5o1SACbG_JmZ-31" style="edgeStyle=orthogonalEdgeStyle;rounded=0;orthogonalLoop=1;jettySize=auto;html=1;" edge="1" parent="1" source="8xbBpxBC5o1SACbG_JmZ-30" target="8xbBpxBC5o1SACbG_JmZ-2">
          <mxGeometry relative="1" as="geometry" />
        </mxCell>
        <mxCell id="8xbBpxBC5o1SACbG_JmZ-30" value="client" style="image;aspect=fixed;perimeter=ellipsePerimeter;html=1;align=center;shadow=0;dashed=0;spacingTop=3;image=img/lib/active_directory/laptop_client.svg;" vertex="1" parent="1">
          <mxGeometry x="20" y="551.5" width="45" height="50" as="geometry" />
        </mxCell>
        <mxCell id="8xbBpxBC5o1SACbG_JmZ-33" value="" style="endArrow=none;dashed=1;html=1;dashPattern=1 3;strokeWidth=2;rounded=0;" edge="1" parent="1">
          <mxGeometry width="50" height="50" relative="1" as="geometry">
            <mxPoint x="730" y="590" as="sourcePoint" />
            <mxPoint x="780" y="540" as="targetPoint" />
          </mxGeometry>
        </mxCell>
        <mxCell id="8xbBpxBC5o1SACbG_JmZ-36" style="edgeStyle=orthogonalEdgeStyle;rounded=0;orthogonalLoop=1;jettySize=auto;html=1;" edge="1" parent="1" source="8xbBpxBC5o1SACbG_JmZ-34" target="8xbBpxBC5o1SACbG_JmZ-18">
          <mxGeometry relative="1" as="geometry" />
        </mxCell>
        <mxCell id="8xbBpxBC5o1SACbG_JmZ-37" value="&lt;font style=&quot;font-size: 14px;&quot;&gt;WebSocket:&amp;nbsp;&lt;span style=&quot;font-family: &amp;quot;Fira Code&amp;quot;, monospace; color: rgb(8, 8, 8);&quot;&gt;/topic/analyze&lt;/span&gt;&lt;/font&gt;" style="edgeLabel;html=1;align=center;verticalAlign=middle;resizable=0;points=[];" vertex="1" connectable="0" parent="8xbBpxBC5o1SACbG_JmZ-36">
          <mxGeometry x="-0.2682" y="3" relative="1" as="geometry">
            <mxPoint y="1" as="offset" />
          </mxGeometry>
        </mxCell>
        <mxCell id="8xbBpxBC5o1SACbG_JmZ-34" value="" style="shape=waypoint;sketch=0;size=6;pointerEvents=1;points=[];fillColor=#D9A741;resizable=0;rotatable=0;perimeter=centerPerimeter;snapToPoint=1;verticalAlign=top;dashed=0;gradientColor=none;" vertex="1" parent="1">
          <mxGeometry x="198.25" y="739.5" width="20" height="20" as="geometry" />
        </mxCell>
      </root>
    </mxGraphModel>
  </diagram>
</mxfile>
